<svg width="200" height="200" viewBox="0 0 200 200" fill="none" xmlns="http://www.w3.org/2000/svg">
<path d="M170.843 29.2893C180.136 38.5752 187.507 49.5991 192.537 61.7317C196.585 71.4974 199.052 81.8274 199.86 92.3346C199.948 93.4795 199.034 94.4444 197.886 94.4444L188.855 94.4444C188.242 84.6716 186.017 75.0538 182.258 65.9837C177.787 55.1992 171.235 45.4002 162.975 37.1461C154.716 28.892 144.91 22.3445 134.118 17.8774C123.325 13.4103 111.759 11.1111 100.077 11.1111L94.4587 6.83216L94.4587 1.99999C94.4587 0.895421 95.3542 -9.14843e-06 96.4587 -9.05187e-06L100.077 -8.73552e-06C113.22 -7.0132e-06 126.233 2.58658 138.375 7.61206C150.517 12.6375 161.55 20.0035 170.843 29.2893Z" fill="#485074"/>
<path d="M29.1574 170.711C19.8644 161.425 12.4927 150.401 7.46337 138.268C3.41515 128.503 0.94831 118.173 0.139896 107.665C0.0518101 106.52 0.966203 105.556 2.11447 105.556L11.1452 105.556C11.7576 115.328 13.9827 124.946 17.7423 134.016C22.2125 144.801 28.7647 154.6 37.0246 162.854C45.2845 171.108 55.0904 177.656 65.8825 182.123C76.6746 186.59 88.2415 188.889 99.9227 188.889L105.541 198.889V198.889C105.541 199.503 105.044 200 104.43 200L99.9227 200C86.7804 200 73.7667 197.413 61.6248 192.388C49.4828 187.362 38.4504 179.997 29.1574 170.711Z" fill="#485074"/>
<path d="M10.9713 105.556L10.9713 116.667L197.829 116.667C198.337 116.667 198.764 116.286 198.823 115.781L199.872 106.67C199.94 106.076 199.476 105.556 198.878 105.556L10.9713 105.556Z" fill="#485074"/>
<path d="M3.01126 83.3333C2.50324 83.3333 2.07594 83.7142 2.01783 84.2189L0.968666 93.33C0.900302 93.9237 1.3645 94.4444 1.96211 94.4444L188.985 94.4444L188.985 83.3333L3.01126 83.3333Z" fill="#485074"/>
<path d="M105.541 7.00001L94.4587 6.83216L94.4154 198.889L105.541 198.889L105.541 7.00001Z" fill="#485074"/>
</svg>
