<svg xmlns="http://www.w3.org/2000/svg" width="201" height="201" viewBox="0 0 201 201" fill="#485074">
  <path class="path0" d="M171.697 29.4358C181.036 38.7681 188.445 49.8471 193.499 62.0403C197.569 71.8581 200.049 82.2435 200.86 92.8069C200.948 93.9518 200.034 94.9167 198.886 94.9167L189.799 94.9167C189.184 85.095 186.947 75.4291 183.169 66.3136C178.676 55.4752 172.092 45.6272 163.79 37.3318C155.489 29.0364 145.634 22.4562 134.788 17.9668C123.942 13.4774 112.317 11.1667 100.578 11.1667L94.931 11.1667L94.931 2.00001C94.931 0.895439 95.8264 8.57964e-06 96.931 8.6762e-06L100.578 8.995e-06C113.786 1.07259e-05 126.864 2.59953 139.067 7.65013C151.27 12.7007 162.357 20.1035 171.697 29.4358Z" fill=""/>
  <path  class="path1" d="M29.3032 171.564C19.9637 162.232 12.5552 151.153 7.50067 138.96C3.43086 129.142 0.95138 118.757 0.139763 108.193C0.0517974 107.048 0.966181 106.083 2.11445 106.083L11.2009 106.083C11.8164 115.905 14.0526 125.571 17.831 134.686C22.3236 145.525 28.9085 155.373 37.2097 163.668C45.5109 171.964 55.3658 178.544 66.2119 183.033C77.0579 187.523 88.6827 189.833 100.422 189.833L106.069 189.833L106.069 199C106.069 200.105 105.174 201 104.069 201L100.422 201C87.2143 201 74.1355 198.4 61.9329 193.35C49.7302 188.299 38.6427 180.897 29.3032 171.564Z" fill=""/>
  <path  class="path2" d="M11.0262 106.083L11.0262 117.25L198.823 117.25C199.331 117.25 199.758 116.869 199.816 116.364L200.872 107.198C200.94 106.604 200.476 106.083 199.878 106.083L11.0262 106.083Z" fill=""/>
  <path class="path3" d="M3.02185 83.75C2.51382 83.75 2.08653 84.1309 2.02841 84.6356L0.97285 93.8023C0.904486 94.396 1.36868 94.9167 1.96629 94.9167L189.93 94.9167L189.93 83.75L3.02185 83.75Z" fill=""/>
  <path  class="path4" d="M106.069 10.1667L94.8875 10.1667L94.8875 190.833L106.069 190.833L106.069 11.1667Z" fill=""/>
  <defs>
    <linearGradient id="paint0" x1="-1.64621e-05" y1="150.75" x2="195.989" y2="150.583" gradientUnits="userSpaceOnUse">
      <stop stop-color="#E323FF"/>
      <stop offset="1" stop-color="#7517F8"/>
    </linearGradient>
  </defs>
</svg>