<svg
  width="1000"
  height="1000"
  viewBox="0 0 1000 1000"
  fill="none"
  xmlns="http://www.w3.org/2000/svg"
>
<path
    d="M523.883 900.149V877.37H524.066V876.87L524.066 571.344H904.435C907.229 571.344 909.579 569.249 909.899 566.473L914.168 529.392C914.544 526.127 911.991 523.263 908.704 523.263H524.066V477.182L875.86 477.182H876.33L877.067 477.182H877.567L881.256 477.182C904.493 477.182 923.195 457.594 919.586 434.568C914.395 401.451 905.284 368.989 892.39 337.877C871.058 286.407 839.792 239.64 800.377 200.247C760.962 160.854 714.169 129.605 662.671 108.286C611.173 86.9664 555.977 75.9934 500.236 75.9934C486.814 75.9934 475.933 86.8739 475.933 100.296V123.574V429.101H86.1487C83.3545 429.101 81.0044 431.196 80.6848 433.972L76.4158 471.053C76.0398 474.318 78.5929 477.182 81.8796 477.182H475.933V523.263H123.956H123.486H122.933H122.433H118.56C95.3232 523.263 76.6213 542.851 80.2302 565.876C85.4208 598.993 94.5325 631.456 107.427 662.568C128.758 714.037 160.024 760.804 199.439 800.197C238.854 839.591 285.647 870.839 337.145 892.159C388.644 913.478 443.839 924.451 499.581 924.451C513.003 924.451 523.883 913.57 523.883 900.149ZM869.778 429.101H524.066L524.067 124.829C565.335 127.447 605.947 136.848 644.251 152.707C689.91 171.61 731.396 199.317 766.342 234.246C801.287 269.174 829.008 310.64 847.92 356.277C857.672 379.808 864.983 404.21 869.778 429.101ZM151.896 644.168C142.144 620.636 134.833 596.234 130.038 571.344H475.933V875.627C434.601 873.026 393.926 863.619 355.565 847.737C309.906 828.834 268.42 801.127 233.474 766.199C198.529 731.27 170.808 689.804 151.896 644.168Z"
    fill="#485074"
    stroke="#485074"
  />
</svg>
